<?xml version="1.0" standalone="no"?>
<!DOCTYPE svg PUBLIC "-//W3C//DTD SVG 20010904//EN"
 "http://www.w3.org/TR/2001/REC-SVG-20010904/DTD/svg10.dtd">
<svg version="1.0" xmlns="http://www.w3.org/2000/svg"
 width="512.000000pt" height="512.000000pt" viewBox="0 0 512.000000 512.000000"
 preserveAspectRatio="xMidYMid meet">

<g transform="translate(0.000000,512.000000) scale(0.100000,-0.100000)"
fill="#000000" stroke="none">
<path d="M1455 4610 c-153 -8 -231 -20 -333 -52 -258 -79 -464 -279 -554 -538
-64 -184 -71 -348 -65 -1622 5 -1132 5 -1127 66 -1304 39 -113 99 -211 185
-301 165 -174 342 -256 615 -283 139 -14 2237 -14 2386 0 213 20 379 82 523
195 143 112 258 293 302 475 38 161 41 295 38 1465 -4 1235 -3 1209 -68 1387
-97 266 -328 474 -600 542 -36 8 -94 21 -130 27 -77 13 -2144 21 -2365 9z
m2290 -200 c130 -12 195 -30 290 -77 142 -71 232 -162 305 -309 78 -155 73
-81 78 -1374 4 -1278 2 -1345 -49 -1486 -73 -201 -212 -340 -413 -413 -141
-51 -208 -53 -1481 -49 -1301 5 -1212 -1 -1391 87 -85 43 -112 62 -177 130
-59 62 -86 101 -122 175 -81 166 -78 106 -82 1366 -5 1183 0 1349 39 1465 38
115 88 196 173 281 66 68 96 89 175 127 109 53 152 65 270 76 128 12 2254 13
2385 1z"/>
<path d="M2635 3733 c-198 -26 -282 -55 -660 -226 -116 -52 -273 -122 -350
-156 -156 -68 -212 -109 -271 -198 -74 -112 -102 -230 -85 -356 21 -153 86
-264 207 -355 145 -109 300 -163 469 -164 122 -1 199 23 435 132 85 40 199 90
255 112 252 100 328 175 281 277 -34 71 -68 110 -119 136 -93 46 -159 32 -442
-96 -359 -163 -382 -171 -451 -172 -146 -2 -256 125 -200 231 32 61 91 98 286
180 52 21 181 78 285 124 326 147 410 169 561 148 215 -28 379 -126 486 -289
104 -159 116 -310 37 -476 -63 -134 -151 -212 -311 -277 -193 -78 -883 -396
-892 -411 -8 -12 -6 -25 8 -49 11 -18 23 -35 27 -38 4 -3 37 -57 75 -120 159
-272 265 -402 339 -416 59 -11 135 3 183 33 66 41 87 74 87 136 0 53 -18 90
-106 214 -23 33 -28 47 -20 61 5 10 103 59 238 117 125 55 275 123 333 153
268 137 391 269 483 517 39 106 48 278 22 406 -52 261 -229 495 -497 660 -196
121 -488 189 -693 162z"/>
</g>
</svg>
